<?xml version="1.0" encoding="UTF-8" standalone="no"?>
<svg
   xmlns:dc="http://purl.org/dc/elements/1.1/"
   xmlns:cc="http://web.resource.org/cc/"
   xmlns:rdf="http://www.w3.org/1999/02/22-rdf-syntax-ns#"
   xmlns:svg="http://www.w3.org/2000/svg"
   xmlns="http://www.w3.org/2000/svg"
   xmlns:sodipodi="http://inkscape.sourceforge.net/DTD/sodipodi-0.dtd"
   xmlns:inkscape="http://www.inkscape.org/namespaces/inkscape"
   xml:space="preserve"
   width="210mm"
   height="297mm"
   style="shape-rendering:geometricPrecision; text-rendering:geometricPrecision; image-rendering:optimizeQuality; fill-rule:evenodd; clip-rule:evenodd"
   viewBox="0 0 210 297"
   id="svg1347"
   sodipodi:version="0.32"
   inkscape:version="0.43"
   sodipodi:docname="rosewinthefist.svg"
   sodipodi:docbase="C:\Documents and Settings\Angelo\Documenti"><metadata
   id="metadata1368"><rdf:RDF><cc:Work
       rdf:about=""><dc:format>image/svg+xml</dc:format><dc:type
         rdf:resource="http://purl.org/dc/dcmitype/StillImage" /></cc:Work></rdf:RDF></metadata><sodipodi:namedview
   inkscape:window-height="540"
   inkscape:window-width="853"
   inkscape:pageshadow="2"
   inkscape:pageopacity="0.0"
   borderopacity="1.0"
   bordercolor="#666666"
   pagecolor="#ffffff"
   id="base"
   inkscape:zoom="0.35444071"
   inkscape:cx="372.04724"
   inkscape:cy="526.18109"
   inkscape:window-x="22"
   inkscape:window-y="29"
   inkscape:current-layer="layer1" />
 <defs
   id="defs1349">
  <style
   type="text/css"
   id="style1351">
   
    .fil2 {fill:#009E62}
    .fil0 {fill:#2B2828}
    .fil1 {fill:#D82628}
    .fil3 {fill:white}
   
  </style>
 
  <metadata
   id="ID0-Layer" />
  
  
  
  
  
  
 </defs>
 
<g
   inkscape:groupmode="layer"
   id="layer1"
   inkscape:label="BackgroundLevel"><path
     style="fill:#2b2828;shape-rendering:geometricPrecision;text-rendering:geometricPrecision;image-rendering:optimizeQuality;fill-rule:evenodd;clip-rule:evenodd"
     id="path1355"
     d="M 37.135304,103.79585 C 34.980135,103.07746 32.544272,102.82829 30.669798,101.64069 C 29.585078,100.66717 28.191117,99.93451 27.043359,98.780805 C 26.120395,97.657429 25.097522,96.498372 24.259005,95.245948 C 23.365181,93.912051 22.372043,91.505327 22.062802,89.954367 C 21.457404,86.856015 21.839792,82.672942 22.646791,78.776512 C 23.774924,73.324958 25.672591,70.256936 28.96957,65.795547 C 31.284116,62.662702 32.135717,62.291019 34.663164,59.509638 C 35.42675,58.816226 36.312248,58.2364 36.953922,57.429401 C 38.299713,55.737499 38.465633,55.276017 39.543812,52.472633 C 40.03146,51.204152 40.033244,49.798297 40.277663,48.461426 C 40.502457,46.230137 40.573226,45.540293 40.798615,43.309003 C 40.91339,42.170166 41.347517,39.787824 41.737635,38.706672 C 41.978486,38.039426 42.220526,37.371586 42.461377,36.70434 C 43.133975,34.84295 43.914807,33.186729 44.9579,31.488879 C 47.022675,28.127673 50.80314,26.34954 53.867595,23.926165 C 58.275461,20.441262 64.244398,19.284584 69.736391,19.284584 C 72.075319,19.251281 74.414843,19.217978 76.754366,19.18408 C 78.422481,19.318481 80.097732,19.697895 81.629067,18.808234 C 83.787209,17.554621 85.295946,14.750642 87.40116,13.408419 C 92.803354,8.935136 98.937021,9.1218697 105.63624,9.1742027 C 113.08953,9.2348614 122.0248,13.079554 127.50609,18.329506 C 130.2167,20.531061 129.03683,24.348397 131.40192,24.874106 C 135.66112,25.820263 137.08303,25.057271 142.90567,27.747069 C 145.80242,29.085129 150.60219,31.451414 154.03595,34.339839 C 156.89286,36.742995 158.45749,40.350404 159.29066,44.095188 C 160.43842,49.256531 159.82113,53.267737 159.07598,58.415997 C 158.71916,60.88219 159.28293,62.354651 160.69354,64.430725 C 162.44848,66.190423 164.33544,67.687861 165.42611,69.961373 C 165.84953,70.844493 166.2676,71.64495 166.59052,72.474547 C 167.59496,75.056111 167.42844,78.417317 167.25301,81.126145 C 166.96756,85.535796 165.96728,88.963013 164.25694,92.946269 C 162.11843,97.920284 161.05036,101.91543 167.16202,104.27458 C 169.18457,105.05601 171.30346,105.7179 172.33288,106.26145 C 175.57693,107.97476 177.63992,108.59919 180.63955,110.73533 C 185.52674,114.21548 188.98429,116.59722 192.71361,120.1523 C 194.80574,122.14749 196.83543,124.34786 198.93232,126.96927 C 197.78397,128.02663 195.85895,130.93111 194.71178,131.98788 C 191.91375,134.56529 188.41814,137.42398 185.43457,139.98116 C 183.33768,141.77773 180.66334,143.75508 177.93251,145.59268 C 175.52281,147.21382 173.06792,148.72731 170.92702,149.91016 C 169.03114,150.95741 166.59944,151.80485 165.2816,153.54076 C 164.9456,153.98321 164.60781,154.42566 164.27181,154.86871 C 163.3655,156.06107 163.01047,156.98998 163.68901,158.35004 C 164.24564,159.46688 164.79098,161.22539 165.26079,162.48197 C 165.74427,165.00645 165.95182,166.08998 166.43531,168.61504 C 180.58663,168.61504 194.73795,168.61504 208.88987,168.61504 C 208.88987,200.7933 208.88987,232.97216 208.88987,265.15101 C 194.52089,265.15101 180.15191,265.15101 165.78293,265.15101 C 165.61641,266.52713 165.4499,267.90385 165.28338,269.28056 C 165.02826,271.40243 164.61019,272.4812 163.62478,274.38719 C 163.27213,275.06871 162.91948,275.75083 162.56742,276.43235 C 161.70868,278.01661 161.00159,279.72754 159.77712,281.05549 C 158.64244,282.28948 157.42392,283.79346 155.95919,284.63138 C 154.32913,285.56386 151.85521,286.65512 149.00663,286.73243 C 148.84487,286.7366 148.68252,286.74671 148.51957,286.74671 C 116.18788,286.74671 83.857383,286.74671 51.526882,286.74671 C 49.650624,286.53024 47.906389,286.57841 46.248384,285.65842 C 44.860965,284.88769 43.445594,284.18596 42.169383,283.24099 C 40.752823,282.19136 39.350536,281.2006 38.176612,279.74954 C 37.28814,278.65115 36.88137,277.2893 36.35804,275.97859 C 35.646787,274.19927 35.23288,273.00275 35.083612,271.1033 C 34.888553,268.62759 34.803511,266.91666 35.33041,264.50577 C 35.662249,262.98752 35.907857,261.90637 36.660144,260.5576 C 37.425514,259.18802 38.190884,257.81785 38.956255,256.44827 C 39.39157,256.25975 39.471854,257.02275 37.036585,255.0222 C 36.88018,254.89374 36.700583,254.7534 36.509687,254.58748 C 35.585533,253.78642 34.673274,253.14118 33.708681,252.3431 C 32.239194,251.12815 30.53064,249.98633 29.37753,248.46511 C 26.214356,244.29452 24.023506,239.74988 24.225702,234.46246 C 24.270898,233.2701 24.407083,232.1604 24.809691,230.81521 C 25.492993,228.53515 26.14894,227.85839 27.410284,225.85903 C 28.771537,223.7003 31.0843,221.76457 32.832103,219.86452 C 32.409276,219.46489 31.985855,219.06407 31.563028,218.66562 C 27.258638,214.60149 23.158227,209.34202 23.945006,202.81407 C 24.947659,194.49312 27.841437,192.42419 32.686403,188.366 C 32.96353,188.81797 23.54002,185.44903 23.254568,173.80434 C 23.096379,167.34894 26.96367,163.1736 31.059322,158.78417 C 29.039744,157.32003 26.939287,156.15087 24.97561,154.0296 C 23.787413,152.74684 22.336956,151.44446 21.249262,150.07489 C 18.992995,147.60334 17.1994,144.97777 14.943134,142.50682 C 13.869118,141.5 12.795102,140.492 11.720491,139.48459 C 10.805853,138.62704 10.011342,137.80161 8.9278113,137.17302 C 5.8835763,135.40499 2.8381519,133.63756 -0.20608313,131.87013 C 3.3935954,129.02274 6.9926793,126.17535 10.591763,123.32856 C 14.835495,119.76515 18.969802,114.88094 23.144549,110.99462 C 23.76422,110.41657 24.32561,109.9878 25.044594,109.54356 C 29.040933,107.07024 30.465819,106.08364 31.876431,105.58053 C 33.848434,105.03222 35.163896,104.34357 37.135304,103.79585 L 37.135304,103.79585 z "
     class="fil0" /></g><g
   inkscape:groupmode="layer"
   id="layer2"
   inkscape:label="TopLevel"><path
     style="fill:#ffffff;shape-rendering:geometricPrecision;text-rendering:geometricPrecision;image-rendering:optimizeQuality;fill-rule:evenodd;clip-rule:evenodd"
     id="path1363"
     d="M 46.73068,162.32557 C 41.037681,162.32557 36.421672,166.78815 36.421672,172.29025 C 36.421672,177.79176 41.037681,182.25434 46.73068,182.25434 L 68.69984,182.25434 L 68.69984,162.32557 L 46.73068,162.32557 z M 46.73068,193.21691 C 41.037681,193.21691 36.421672,197.67949 36.421672,203.18159 C 36.421672,208.6831 41.037681,213.14568 46.73068,213.14568 L 68.69984,213.14568 L 68.69984,193.21691 L 46.73068,193.21691 z M 55.812242,257.04059 C 50.119243,257.04059 45.503233,261.50376 45.503233,267.00527 C 45.503233,272.50677 50.119243,276.96935 55.812242,276.96935 L 66.796822,276.96935 L 90.497134,276.96935 C 96.190133,276.96935 100.80614,272.50677 100.80614,267.00467 C 100.80614,261.50316 96.190133,257.04059 90.497134,257.04059 L 66.796822,257.04059 L 55.812242,257.04059 z M 46.73068,224.50729 C 41.037681,224.50729 36.421672,228.96987 36.421672,234.47198 C 36.421672,239.97348 41.037681,244.43606 46.73068,244.43606 L 57.71526,244.43606 L 68.69984,244.43606 L 90.497134,244.43606 C 96.190133,244.43606 100.80614,239.97348 100.80614,234.47138 C 100.80614,228.96987 96.190133,224.50729 90.497134,224.50729 L 68.69984,224.50729 L 57.71526,224.50729 L 46.73068,224.50729 z M 146.86216,222.86891 L 118.1926,222.86891 C 112.72439,222.91054 105.48459,217.84435 106.62641,218.07152 C 108.00966,221.03904 110.64356,223.07052 111.76872,228.12125 L 111.76872,240.11026 C 111.32865,244.40216 109.39292,248.26886 106.29992,250.8754 C 109.41611,253.99814 112.14516,256.79736 111.76872,261.30751 L 111.76872,276.61432 L 145.78458,276.61432 C 155.12543,277.51528 157.67072,265.61012 159.31088,256.13368 L 167.8929,256.13368 L 200.62601,256.13368 L 200.62601,179.90589 L 167.8929,179.90589 C 167.8929,189.5203 167.8929,192.85058 167.8929,202.46677 C 167.8929,202.69751 167.88814,202.93301 167.8929,203.15899 C 168.17181,215.82953 160.69354,223.03246 148.05869,222.87129 C 148.04501,222.87129 148.03074,222.87129 148.01825,222.87129 C 147.42474,222.86356 147.01441,222.88973 146.86216,222.86891 L 146.86216,222.86891 z M 155.54171,202.71416 C 155.54171,207.73635 151.26646,211.82427 145.94634,211.94916 L 145.94634,211.95272 L 145.69657,211.95272 L 123.7393,211.95272 C 117.91249,211.95272 113.18706,207.5068 113.18706,202.02551 L 113.18706,180.53865 L 100.87037,180.53865 L 100.87037,202.64875 L 100.87037,203.35584 L 100.84123,203.35584 C 100.45587,208.16215 96.18597,211.95272 90.975267,211.95272 L 80.200614,212.00565 L 80.200614,170.9064 C 80.200614,165.42392 84.926047,160.97799 90.752852,160.97799 C 90.904499,160.97799 91.054956,160.98097 91.205413,160.98691 L 100.87037,161.00416 L 144.20983,161.00416 C 144.46793,160.98632 144.72662,160.97799 144.98948,160.97799 C 150.81628,160.97799 155.54171,165.42392 155.54171,170.9064 L 155.54171,202.71416 L 155.54171,202.71416 z "
     class="fil3" /><path
     style="fill:#009e62;shape-rendering:geometricPrecision;text-rendering:geometricPrecision;image-rendering:optimizeQuality;fill-rule:evenodd;clip-rule:evenodd"
     id="path1359"
     d="M 190.32949,128.93354 C 184.8036,129.20591 177.79097,129.89992 169.84171,130.79552 C 169.9547,130.98166 170.07423,131.17018 170.19674,131.36643 C 171.94335,134.16268 174.23709,137.14506 176.34706,139.55595 L 176.35479,139.54941 L 176.37501,139.53633 C 181.0487,136.55751 184.49674,133.72201 187.94655,130.88413 C 188.74463,130.22759 189.54092,129.57224 190.32949,128.93354 L 190.32949,128.93354 z M 177.13978,115.39118 C 176.16508,116.76255 174.67597,118.53057 173.50502,119.99887 C 171.74354,122.20637 169.88988,124.53162 168.52803,126.8194 C 176.90488,125.86968 184.32487,125.12929 190.23255,124.84205 C 187.5606,122.14333 184.80717,120.03395 182.01805,118.24214 C 180.40227,117.2044 178.77162,116.27252 177.13978,115.39118 L 177.13978,115.39118 z M 162.83206,108.64677 C 161.8193,110.39695 160.48659,112.52655 159.58503,114.0329 C 156.8542,118.5948 154.14537,123.11863 151.6881,128.80271 L 154.23755,128.49703 C 157.45544,128.11286 160.59185,127.7394 163.62657,127.38436 C 165.14066,123.91968 167.80548,120.57631 170.29962,117.45001 C 171.40754,116.06021 172.48036,114.71561 173.38608,113.42989 C 171.11197,112.25953 168.8004,111.12842 166.41271,110.09425 C 165.24354,109.58817 164.05059,109.10409 162.83206,108.64677 z M 148.14313,105.92248 C 147.35576,107.02325 145.34986,109.72614 144.39359,111.0529 C 140.22836,116.82499 135.03134,124.02732 131.98294,131.078 C 137.07827,130.52197 142.12365,129.93679 147.03463,129.35637 C 149.84098,122.34493 152.94469,117.16396 156.07515,111.93364 C 157.01834,110.35829 157.9639,108.7776 158.82442,107.28492 C 154.41893,106.32508 151.04524,106.02357 148.14313,105.92248 L 148.14313,105.92248 z M 129.41922,106.95546 C 125.52576,111.89677 120.59575,120.5668 118.14026,127.30943 C 117.64131,128.6802 117.18756,130.03372 116.78436,131.35632 C 116.65472,131.78034 116.52745,132.21089 116.40376,132.64383 C 120.05161,132.31437 123.7167,131.9528 127.36812,131.571 C 130.42603,123.42311 136.38307,115.16698 141.0752,108.66461 C 141.87745,107.55194 142.25627,107.04169 143.10906,105.82792 C 138.97891,105.76667 134.06377,106.06818 129.421,106.95486 L 129.41922,106.95546 L 129.41922,106.95546 z M 98.807973,133.94561 C 103.14269,133.70893 107.57851,133.39374 112.05714,133.02087 C 112.30573,132.08958 112.57869,131.13688 112.87366,130.1705 C 113.3167,128.71767 113.79186,127.29516 114.29379,125.91547 C 116.88784,118.79164 119.09593,113.74448 123.14401,108.61109 C 114.2367,111.39663 108.3754,114.73405 104.63299,118.85289 C 100.86442,122.99969 99.23972,127.95527 98.807973,133.94561 L 98.807973,133.94561 z M 118.95797,154.49524 C 117.41117,151.68115 116.84264,149.21615 115.51826,146.24566 C 114.18436,143.25375 113.03304,140.21309 112.14516,137.12247 C 107.76941,137.48345 103.42636,137.78912 99.164194,138.02402 C 100.85907,143.96858 103.49178,147.74131 106.96598,150.21404 C 110.23381,152.5387 114.2587,153.7263 118.95797,154.49524 L 118.95797,154.49524 z M 136.26176,154.9817 C 132.77091,149.29465 129.85988,142.599 127.4371,135.68271 C 123.73633,136.06748 120.0183,136.43262 116.31336,136.76387 C 117.1162,139.42274 118.11529,142.02571 119.25293,144.57814 C 120.7028,147.82992 122.97274,151.52059 124.81807,154.68971 C 126.49332,154.72479 128.24529,154.77594 129.99607,154.82649 C 132.13161,154.88774 134.26716,154.94721 136.26176,154.9817 L 136.26176,154.9817 z M 157.415,150.80041 C 154.43737,147.47905 151.08627,142.38253 148.88174,137.65412 C 148.45654,136.74186 148.04204,135.79333 147.64478,134.81565 C 147.46816,134.38152 147.29094,133.93491 147.11729,133.47521 C 142.06596,134.07169 136.87191,134.67174 131.62315,135.23967 C 133.98943,141.54282 138.05416,148.09813 141.34757,153.41409 L 142.40732,154.59753 L 143.32909,154.4435 C 147.44437,153.7489 150.9709,153.15242 154.32259,151.95233 C 155.38947,151.57054 156.4177,151.18756 157.415,150.80041 L 157.415,150.80041 z M 165.65804,131.73336 L 165.41957,131.30161 C 161.98284,131.70065 158.40338,132.12823 154.71806,132.5683 L 151.31939,132.97508 L 151.44368,133.27658 C 151.79693,134.14603 152.18526,135.03152 152.60095,135.92356 C 154.32438,139.61958 155.80219,143.65279 158.93325,146.31524 C 159.89071,147.12937 162.35571,147.9774 163.03782,148.39071 C 164.07735,147.89355 165.08951,147.37855 166.08027,146.83381 C 168.5203,145.49159 170.84436,143.97452 173.18329,142.16784 C 170.97876,139.6398 168.57739,136.50517 166.71897,133.52992 C 166.36394,132.9614 166.00832,132.36076 165.65804,131.73336 L 165.65804,131.73336 z "
     class="fil2" /><path
     style="fill:#009e62;shape-rendering:geometricPrecision;text-rendering:geometricPrecision;image-rendering:optimizeQuality;fill-rule:evenodd;clip-rule:evenodd"
     id="path1361"
     d="M 22.015821,119.46008 C 17.958824,122.80582 14.08737,125.99992 11.634855,130.24305 C 19.057817,129.85888 25.1112,129.62576 32.864811,129.47293 C 29.874099,125.58601 26.442718,122.00417 23.702372,119.14429 C 23.255757,118.67805 23.33723,118.76845 23.12433,118.54484 L 23.120167,118.54901 L 23.11422,118.55317 L 22.017011,119.46008 L 22.015821,119.46008 z M 12.724928,134.28697 C 14.60178,136.06867 16.516098,138.07398 18.486317,140.13578 C 19.826755,141.53866 21.191576,142.96711 22.587322,144.36999 C 24.8198,142.42594 27.724877,139.96867 29.52204,137.735 C 30.602598,136.39159 31.617739,135.00179 32.572222,133.57036 C 25.031511,133.72498 19.959967,133.91231 12.724928,134.28697 L 12.724928,134.28697 z M 25.813533,147.49273 C 26.629452,148.2468 27.468564,148.99017 28.33087,149.71034 C 29.186633,150.42457 30.053696,151.10846 30.930274,151.74538 C 31.24784,151.97672 31.555297,152.19675 31.856211,152.40727 C 32.613851,151.88751 35.063392,151.46528 35.398799,151.00677 C 36.012523,150.16766 35.938186,150.27411 36.601269,149.37434 C 40.395413,144.22965 44.780086,138.28925 47.531137,133.48116 L 47.315264,133.47878 C 43.994496,133.44786 40.714763,133.4544 37.466548,133.49127 C 36.019659,135.87183 34.442533,138.14772 32.711975,140.29932 C 30.77387,142.70664 28.211336,145.38038 25.813533,147.49273 L 25.813533,147.49273 z M 39.493857,155.31651 L 39.685943,155.32305 L 39.977343,155.32722 C 41.556849,155.33257 43.126244,155.35755 44.68553,155.38074 C 51.371667,155.48243 57.898426,155.58234 64.171251,154.21217 C 62.955103,151.17328 61.664024,147.92388 60.280767,144.13093 C 59.035479,140.71322 57.830631,137.14685 56.845224,133.67146 C 55.269881,133.6221 53.705243,133.58226 52.15131,133.55074 C 49.394312,138.92855 45.019153,144.85824 40.654104,150.77662 C 40.369246,151.16318 39.469475,153.91304 39.538459,154.90142 C 39.550353,155.06972 39.52716,155.20828 39.493857,155.31651 L 39.493857,155.31651 z M 68.159264,153.16253 C 72.534423,151.83637 75.808209,150.16885 78.488492,147.90128 C 81.9056,145.00869 84.37774,141.12654 86.958114,135.71958 C 77.55185,134.69909 69.790508,134.18825 61.15794,133.82965 C 62.045222,136.82393 63.072257,139.842 64.127243,142.73697 C 65.495038,146.48889 66.928249,150.08737 68.159264,153.16253 L 68.159264,153.16253 z M 87.465982,131.65605 L 87.465982,131.65426 C 88.437711,123.33212 86.909349,117.41374 83.346541,113.10935 C 79.782544,108.80317 74.170424,106.09078 66.981177,104.19014 C 66.77006,105.89036 66.723674,107.16776 66.847371,108.32444 C 66.90565,108.87216 66.834287,108.19123 66.888404,108.72705 C 67.237489,112.15605 67.631176,116.00372 69.983188,130.19132 C 76.022893,130.56716 81.087896,130.96323 87.465982,131.65605 L 87.465982,131.65605 z M 61.807345,103.30702 L 61.756796,103.30107 L 61.755606,103.30107 L 61.733603,103.29869 C 59.860319,103.11196 58.202909,103.08876 56.712013,103.17499 C 55.222306,103.26063 53.899113,103.45509 52.694265,103.70189 L 52.69367,103.70189 L 52.685344,103.70427 L 52.672261,103.70665 L 52.613386,103.71914 C 52.462929,104.88831 52.380267,107.18323 52.398702,108.4969 C 52.417732,109.87719 52.399297,111.24617 52.660962,112.65738 C 53.274685,115.97041 53.648747,118.25285 54.047787,122.41689 C 54.197055,123.97082 54.320751,125.45399 54.418281,126.85449 C 54.47775,127.71026 54.533651,128.60111 54.5842,129.51872 C 58.262973,129.61268 61.996457,129.75422 65.793574,129.95165 C 63.563474,116.43309 63.168598,112.57531 62.817134,109.12787 C 62.686302,107.83679 62.536439,106.41964 62.296777,104.59215 C 62.245039,104.1943 61.941745,103.75304 61.807345,103.30702 L 61.807345,103.30702 z M 46.830589,105.26415 L 46.8181,105.26772 C 43.458678,106.43213 39.828075,107.81003 36.268836,109.52334 C 32.714949,111.23368 29.227667,113.28121 26.14894,115.78665 C 26.415362,116.06735 26.225061,115.86218 26.65205,116.30761 C 30.013852,119.8163 34.385442,124.37938 37.881644,129.3974 C 40.999026,129.36529 44.15209,129.36112 47.347377,129.39086 C 48.386901,129.40037 49.431777,129.41643 50.479627,129.43308 C 50.436214,128.68317 50.385071,127.91305 50.330359,127.12686 C 50.222719,125.57828 50.103781,124.1302 49.976516,122.80106 C 49.293808,115.68377 48.365492,109.69878 46.830589,105.26415 L 46.830589,105.26415 z "
     class="fil2" /><path
     style="fill:#009e62;shape-rendering:geometricPrecision;text-rendering:geometricPrecision;image-rendering:optimizeQuality;fill-rule:evenodd;clip-rule:evenodd"
     id="path1365"
     d="M 94.179475,117.59869 C 94.926409,117.61415 95.582356,119.51776 96.039081,122.57686 C 96.4964,125.63656 96.794936,129.84758 96.76758,134.50284 C 96.755686,139.16762 96.372109,143.38756 95.839858,146.44845 C 95.308202,149.50636 94.603491,151.40462 93.807197,151.42008 C 93.011497,151.43554 92.308569,149.56048 91.662733,146.51327 C 91.010949,143.43514 90.257472,139.18367 90.34965,134.47549 C 90.441233,129.7673 91.362412,125.53844 92.071882,122.46803 C 92.770646,119.44283 93.43254,117.58322 94.179475,117.59869 L 94.179475,117.59869 z "
     class="fil2" /><path
     style="fill:#d82628;shape-rendering:geometricPrecision;text-rendering:geometricPrecision;image-rendering:optimizeQuality;fill-rule:evenodd;clip-rule:evenodd"
     id="path1357"
     d="M 46.885895,48.48343 C 46.885895,47.688325 46.885895,46.89322 46.885895,46.098115 C 46.885895,43.414264 47.123773,41.807403 47.81778,40.089334 C 48.355977,38.756626 49.013708,37.593406 49.819517,36.524148 C 51.092756,34.837003 52.747787,33.351459 54.210733,31.824881 C 55.794401,30.322686 57.377474,29.125568 59.15977,27.858277 C 61.847784,26.512486 63.741882,25.545515 66.726648,25.158964 C 68.022484,24.99126 69.731633,24.842587 72.42381,24.759925 C 73.578109,24.724243 74.734193,24.842587 75.888493,24.883621 C 75.45734,27.042952 75.065437,29.198121 74.490964,31.32296 C 73.913516,33.454935 73.347963,35.552419 72.347689,37.546425 C 71.13273,39.969206 69.949885,41.90077 67.108441,43.259644 C 66.017773,43.78119 65.18996,44.27538 63.759128,44.743998 C 62.524545,45.147795 60.132094,45.53494 58.863018,45.905434 C 57.510091,46.335398 56.157164,46.764766 54.804831,47.194135 C 53.02313,47.789423 51.241429,48.384711 49.459728,48.979404 C 48.667596,49.243448 47.875465,49.508086 47.083928,49.772725 C 47.017917,49.342762 46.951906,48.912798 46.885895,48.48343 L 46.885895,48.48343 z M 80.233322,35.156948 C 81.00345,31.341395 81.276414,28.590344 83.515434,25.405167 C 84.779158,23.609788 86.095809,21.987465 87.958983,20.474565 C 89.491507,19.230466 91.029979,18.245654 93.202988,17.214456 C 97.451477,15.90732 100.43922,15.560614 104.89585,15.467247 C 106.68825,15.686689 108.43487,15.919809 110.20467,16.273651 C 112.47759,17.198399 114.05175,17.721135 115.80014,19.434446 C 116.81112,20.424016 117.7775,21.4344 118.73912,22.523283 C 120.53926,24.384079 120.78962,24.814637 121.20829,27.366465 C 121.41821,28.642083 121.56153,29.767837 121.56153,31.057727 C 120.75513,30.452924 119.94872,29.848121 119.14232,29.243318 C 117.52951,28.392311 115.9167,27.541305 114.3039,26.689704 C 111.97389,25.582386 110.17494,24.735542 107.65106,24.270492 C 106.10545,24.270492 104.55985,24.270492 103.01424,24.270492 C 100.68601,24.527994 99.303352,24.300227 97.025677,24.870538 C 94.872887,25.40933 92.186657,26.655212 90.51319,27.753611 C 89.442148,28.457133 88.3717,29.101186 87.223942,29.74286 C 85.907885,30.47909 84.790457,31.23554 83.59096,32.490343 C 82.958207,33.152831 82.29334,33.766555 81.476231,34.317241 C 81.062324,34.596747 80.647229,34.877442 80.233322,35.156948 z M 105.36625,35.963352 C 105.48876,35.117103 105.61186,34.269071 105.73555,33.422822 C 105.90266,32.269117 106.33203,31.263491 107.00047,30.281057 C 107.68793,29.268295 108.25468,28.49103 109.40243,28.185358 C 109.75984,28.090207 110.11666,27.994462 110.47348,27.899311 C 110.49845,28.504114 110.52343,29.109512 110.54841,29.71372 C 110.58171,30.512988 110.60074,31.157041 110.45028,31.939062 C 110.23619,33.044597 110.14937,33.288421 109.32572,34.06747 C 108.72448,34.63778 108.15358,35.076664 107.21396,35.375795 C 106.59845,35.571449 105.98176,35.767698 105.36625,35.963352 L 105.36625,35.963352 z M 86.815387,36.980872 C 87.801389,35.930049 88.782633,34.947616 89.804911,33.990754 C 90.836704,33.026162 91.866118,32.313124 92.965111,31.666693 C 95.21543,30.341716 96.326317,30.156766 98.906097,30.038422 C 99.978329,29.988468 101.05056,29.938514 102.12279,29.88856 C 101.56735,31.339017 101.01904,32.741304 100.5415,34.173325 C 99.926591,36.019253 99.339034,36.807222 98.269775,37.656444 C 97.026271,38.644229 96.443472,39.01175 94.878239,39.096196 C 93.929703,39.148529 92.923482,39.180048 92.144434,39.294229 C 89.62234,39.14734 88.07019,39.332884 85.96795,37.930003 C 86.250429,37.613626 86.532908,37.297249 86.815387,36.980872 L 86.815387,36.980872 z M 110.13747,42.952187 C 109.53267,43.803194 108.92787,44.6542 108.32307,45.505801 C 107.27759,46.492397 106.2345,47.482561 105.19498,48.475699 C 103.34191,50.245506 100.70861,51.275515 98.201385,51.519934 C 96.171102,51.717372 94.304955,51.884481 92.271104,51.784572 C 89.898872,51.669202 87.822798,51.628168 85.542149,50.986494 C 83.444666,50.396558 81.559488,50.02547 79.721291,48.856897 C 78.951758,48.36687 78.181035,47.876843 77.410908,47.38741 C 76.492701,46.692808 75.574495,45.998207 74.655694,45.304199 C 75.214111,44.496011 75.344348,44.308683 75.902765,43.501089 C 76.92207,42.025061 77.746909,41.489837 79.51969,41.104475 C 79.981172,41.003972 80.443843,40.90228 80.905325,40.801777 C 82.383733,41.608181 83.862141,42.414585 85.340548,43.220989 C 86.184418,43.636679 87.029477,44.05237 87.873942,44.468061 C 89.368406,45.204291 90.476914,45.56527 92.111131,45.891756 C 93.606785,46.190292 95.492557,46.013074 97.007836,45.797795 C 99.127918,45.496285 100.7889,44.968198 102.80491,44.224236 C 104.56936,43.572453 105.77599,43.149031 107.64274,43.065179 C 108.47412,43.027119 109.30609,42.989653 110.13747,42.952187 L 110.13747,42.952187 z M 118.87709,36.931513 C 121.22969,39.987641 120.86158,42.089882 121.09589,45.955389 C 120.8027,48.974052 120.56245,50.943081 119.34808,53.699485 C 117.46172,57.005385 117.02224,57.161194 113.43208,58.480819 C 111.39406,58.456436 109.5969,58.357123 107.80033,58.141844 C 105.44178,57.85877 103.41506,57.579264 101.36575,56.392851 C 100.86204,56.101451 100.35715,55.809457 99.852849,55.518057 C 100.36845,55.416959 100.88405,55.315861 101.39965,55.214763 C 105.04452,54.50351 107.60468,52.039696 110.13807,49.456943 C 112.38125,46.613714 114.36931,43.81925 116.32288,40.769663 C 117.17448,39.489883 118.02608,38.210698 118.87709,36.931513 L 118.87709,36.931513 z M 73.183233,53.954608 C 74.951851,55.261744 76.721063,56.569475 78.490276,57.877205 C 81.65226,58.951221 83.064657,59.726107 86.368773,60.138824 C 88.635149,60.421898 91.496218,61.232465 93.603811,62.145914 C 95.60317,62.799482 97.603124,63.45305 99.603077,64.107212 C 101.48707,64.606755 103.37165,65.106892 105.25623,65.607029 C 106.79411,65.914485 108.33258,66.221942 109.87105,66.529993 C 108.57284,68.281959 108.35934,68.772581 106.71145,70.184978 C 104.92023,71.719286 102.86794,72.680311 100.52604,73.106111 C 98.372062,73.221482 96.218678,73.336852 94.065293,73.452223 C 90.891415,73.561052 88.180209,73.938682 85.152625,72.975873 C 82.710814,72.199204 82.007292,71.835252 80.323715,69.875737 C 78.958894,68.286122 77.748693,66.689965 76.528977,64.799435 C 75.837944,63.071851 75.064843,61.417414 74.34229,59.724323 C 73.404459,57.52812 73.344395,56.149026 73.183233,53.954608 L 73.183233,53.954608 z M 129.29552,34.48316 L 131.23898,32.536134 L 135.46427,32.112713 L 138.16775,32.874515 L 142.13911,34.737094 L 145.68824,37.106947 L 147.96948,39.053973 L 150.16628,41.085445 L 152.19418,45.063943 L 152.70146,50.650492 L 152.27923,55.983702 L 151.01134,61.485804 L 150.08183,62.924367 L 147.37836,60.724002 L 144.84318,57.676199 L 142.13911,54.375056 L 140.70293,51.243401 L 139.26615,48.957995 L 136.39318,45.14839 L 134.19639,41.593313 L 131.91514,38.969526 L 128.45046,36.006764 L 129.29552,34.48316 L 129.29552,34.48316 z M 154.46591,70.203413 C 155.19382,70.56915 155.5542,71.19774 156.48073,72.413888 C 157.99423,73.529533 158.94514,74.498883 159.99656,75.819697 C 160.92666,76.991243 160.88325,77.844033 161.07355,79.328387 C 161.45475,82.323263 160.95164,85.135567 160.16129,87.991879 C 159.70219,89.650479 159.51783,90.694166 158.41289,91.997733 C 157.50717,93.068181 156.67758,94.00066 155.61546,94.911136 C 154.85365,95.564109 154.1644,96.309854 153.29318,96.807018 C 151.29204,97.949424 150.78,98.023761 149.38604,98.25688 C 147.67808,98.541738 146.8241,98.578015 145.18929,98.097502 C 142.95741,97.442745 142.88367,97.276231 141.71331,95.257247 C 141.21436,91.858575 141.41358,90.285017 142.29016,86.950571 C 143.26665,84.669922 144.19021,82.379164 145.09057,80.074727 C 145.85773,78.112834 146.40663,76.613018 147.67689,74.944308 C 147.99624,74.52386 148.31619,74.103412 148.63554,73.682964 C 149.71669,72.767731 150.02177,72.486441 150.96614,71.472489 C 151.93728,70.430586 153.00654,69.470751 154.46591,70.203413 L 154.46591,70.203413 z M 127.75348,42.994411 C 129.46322,44.350311 130.86432,45.166825 131.81999,47.125745 C 133.3436,50.250858 135.4726,52.76879 136.1678,56.175193 C 136.62868,58.427297 137.21981,60.527159 137.90608,62.722766 C 138.90398,66.215995 139.47429,69.262014 139.86738,72.87537 C 139.94231,76.459587 140.06423,79.733968 139.04195,83.166538 C 138.57749,84.725229 138.07141,86.760864 137.67534,87.527424 C 137.09849,89.065301 136.52164,90.603772 135.94479,92.142244 C 134.29511,95.992288 132.26007,97.487347 129.13793,99.987438 C 126.25545,101.1798 123.7952,101.73465 120.71588,102.29485 C 116.90508,102.21873 114.21112,101.96539 110.56328,100.9104 C 108.08578,100.25683 106.58299,99.123348 104.44864,97.680028 C 102.23876,96.519781 100.03007,95.354777 97.826729,94.180258 C 96.149099,93.285244 95.209483,91.950158 93.949923,90.527057 C 93.065614,89.642153 92.181305,88.757844 91.296401,87.873535 C 88.950336,85.181359 87.40235,83.442475 86.104729,80.143712 C 89.511727,80.546914 93.098322,81.372348 96.513646,81.004828 C 99.606646,80.671799 101.92357,80.598057 104.69425,79.213017 C 106.47179,78.323356 107.90619,77.542523 109.46071,76.314482 C 110.95756,75.134015 112.36876,73.969011 113.75083,72.658307 C 115.76089,70.749936 117.3517,68.953963 119.02933,66.745866 C 120.38107,64.967733 121.2517,63.535117 122.1586,61.496509 C 122.86807,59.896784 123.47347,58.267324 124.09076,56.629539 C 124.95664,54.336401 125.55252,52.119385 126.13889,49.735854 C 126.69136,47.492076 127.22955,45.24473 127.75348,42.994411 L 127.75348,42.994411 z M 67.20716,51.452139 C 66.171799,51.94395 65.135843,52.435762 64.099887,52.927573 C 63.549201,53.558542 62.509678,54.451177 61.74847,55.283153 C 60.647098,56.484434 59.94536,58.099026 59.241243,59.68983 C 58.340878,61.729034 57.406614,63.668329 56.597831,65.756297 C 55.431043,68.761877 55.357896,71.382095 55.105746,74.609496 C 54.963614,76.4245 55.026057,78.09083 55.136075,79.912376 C 55.242525,81.686346 55.494675,83.311048 55.821162,85.060636 C 56.153001,86.834011 56.599616,88.408759 57.169926,90.122665 C 57.901399,92.328383 59.16096,94.055967 60.402679,96.019644 C 60.769605,96.468638 61.137125,96.917631 61.504051,97.367219 C 62.570931,98.674355 64.115944,99.238124 65.589594,100.03918 C 67.18813,100.69274 68.786071,101.34631 70.384606,101.99988 C 73.814797,103.11196 77.04755,104.11045 80.267814,105.72444 C 83.004593,107.09283 85.293567,108.74132 88.177235,109.86648 C 90.438854,110.75198 91.789997,112.13702 94.310902,112.48908 C 96.070599,112.73528 97.336107,112.66749 99.105914,112.44567 C 100.55637,112.26548 101.47517,111.68922 102.77517,111.00592 C 104.50097,110.09782 105.2491,109.00715 106.49438,107.48949 C 104.33921,102.93652 101.4835,103.97902 98.561175,101.6502 C 95.490773,99.206605 92.324031,97.338674 89.467125,94.549562 C 87.643795,92.254641 85.925726,90.014431 83.833595,87.966307 C 82.420604,86.582456 81.179479,85.339547 80.0341,83.728523 C 78.514064,81.589411 77.12605,79.453273 75.772528,77.13278 C 74.868594,75.583009 74.253681,74.080219 73.689317,72.484657 C 72.686069,69.64678 71.590644,66.861237 70.482136,64.061421 C 69.927287,62.884523 69.373033,61.708219 68.818779,60.531916 C 68.415577,59.087406 68.101579,57.804653 67.938038,56.31673 C 68.043893,54.372083 68.478614,52.629632 68.916309,50.728992 C 68.346592,50.970437 67.776876,51.211288 67.20716,51.452139 L 67.20716,51.452139 z M 58.816632,51.200584 C 56.965947,51.772679 55.114666,52.345963 53.263386,52.918058 C 51.379992,53.500263 49.771942,54.31083 48.005108,55.193949 C 47.286718,55.632833 46.567734,56.071716 45.849939,56.5106 C 44.390562,57.40264 43.836903,58.000307 42.831276,59.392484 C 42.012384,60.277387 41.193491,61.162886 40.374598,62.047789 C 39.160829,63.363251 37.752596,64.522308 36.429403,65.727751 C 35.865634,66.388456 35.30127,67.049755 34.738095,67.709864 C 33.243631,69.461236 32.192808,71.23818 31.216916,73.324958 C 30.364721,75.147099 29.636816,76.558901 29.022498,78.475597 C 28.274374,80.810958 28.450403,82.188862 28.465865,83.950938 C 28.520577,84.615211 28.577073,85.280078 28.631784,85.944945 C 28.767969,87.588082 28.957082,88.122712 29.601134,89.651668 C 30.071537,90.769692 30.839286,91.905556 31.627849,92.83744 C 32.814262,94.240322 34.208818,95.404137 35.569476,96.63872 C 36.877802,97.826322 38.241433,98.279479 39.870298,98.974675 C 41.345732,99.602077 42.860416,99.869094 44.423865,100.22413 C 45.429491,100.45249 46.39111,100.43643 47.422309,100.46379 C 48.655108,100.4965 49.787404,100.17893 50.994631,99.932131 C 52.744219,99.574721 53.833697,98.536981 55.285938,97.503404 C 55.044493,96.845078 54.803047,96.185564 54.561602,95.527238 C 53.907439,93.738995 53.098656,92.317678 52.117412,90.678704 C 51.38475,89.455419 50.733561,88.274359 50.129352,86.983874 C 49.287861,85.188495 48.822811,83.652402 48.360735,81.719054 C 47.977157,80.111004 47.713708,78.797921 47.676837,77.15062 C 47.635209,75.293393 48.046142,73.806065 48.484431,71.994035 C 49.004193,69.845408 49.843305,67.919196 50.67766,65.869883 C 51.57862,63.661787 52.784658,61.617231 53.917549,59.519748 C 54.749525,58.041341 55.581501,56.562933 56.413477,55.084525 C 57.214528,53.789878 58.01558,52.495231 58.816632,51.200584 L 58.816632,51.200584 z "
     class="fil1" /></g></svg>